<svg width="88" height="61" viewBox="0 0 88 61" fill="none" xmlns="http://www.w3.org/2000/svg">
<g clip-path="url(#clip0_427_1071)">
<path d="M84.7171 52.2637H9.74414V57.6037H84.7171V52.2637Z" fill="white"/>
<path fill-rule="evenodd" clip-rule="evenodd" d="M-0.00067833 30.8526L8.54606 59.28C8.54606 59.28 9.70893 61.4174 11.0858 58.8913C12.427 56.3221 33.5799 0 33.5799 0C33.5799 0 29.6632 6.66423 24.5765 16.4231C20.0891 24.9729 14.6886 35.948 10.1655 46.9159C8.78862 45.1311 0.876825 31.4932 -0.0078125 30.8526" fill="white"/>
<path d="M29.2069 43.1372L34.5718 44.9148C34.2151 46.5557 33.6515 47.9087 32.8739 49.0098C32.0962 50.1109 31.1117 50.9673 29.9774 51.4998C28.8145 52.0684 27.3306 52.3563 25.5613 52.3563C23.4068 52.3563 21.6447 51.9964 20.2678 51.3199C18.8909 50.6434 17.728 49.4344 16.7364 47.7215C15.7162 45.9727 15.2168 43.8065 15.2168 41.0933C15.2168 37.5309 16.1014 34.7889 17.8636 32.8674C19.5972 30.9458 22.0656 29.9814 25.276 29.9814C27.7801 29.9814 29.7634 30.514 31.1759 31.6223C32.6242 32.7234 33.68 34.4003 34.3863 36.7176L28.9501 37.9987C28.7717 37.3582 28.5648 36.8616 28.3508 36.5737C27.9941 36.0411 27.6089 35.6453 27.0809 35.4006C26.5887 35.1128 26.0607 34.976 25.4187 34.976C24.0418 34.976 22.9788 35.5805 22.244 36.7896C21.6804 37.718 21.395 39.143 21.395 41.0645C21.395 43.4898 21.716 45.1235 22.3866 46.0159C23.0573 46.9083 24.0132 47.3329 25.2118 47.3329C26.4103 47.3329 27.2593 46.9731 27.8942 46.2678C28.4935 45.5553 28.9215 44.483 29.1998 43.13M42.2339 41.3956L36.9403 40.791C37.1544 39.7907 37.4326 38.9774 37.825 38.4017C38.1817 37.8331 38.7453 37.3366 39.4516 36.9048C39.9438 36.6169 40.6501 36.3722 41.5348 36.1923C42.4194 36.0483 43.3682 35.9404 44.3956 35.9404C46.0578 35.9404 47.399 36.0483 48.3836 36.2642C49.4109 36.4442 50.217 36.8688 50.8877 37.5093C51.3442 37.9699 51.7366 38.5744 52.0149 39.3948C52.2645 40.2153 52.4001 40.9997 52.4001 41.7122V48.6571C52.4001 49.3696 52.4358 49.9381 52.5428 50.37C52.6141 50.7946 52.8995 51.579 53.1777 52.2555H47.984C47.77 51.8309 47.5631 51.2552 47.5275 51.0465C47.4561 50.8305 47.3848 50.5139 47.3134 50.0461C46.6071 50.8305 45.8652 51.3631 45.1589 51.687C44.1673 52.1116 43.0401 52.3275 41.7702 52.3275C40.0366 52.3275 38.731 51.9029 37.8535 51.0465C36.9689 50.1541 36.5123 49.0889 36.5123 47.8439C36.5123 46.5988 36.8262 45.6704 37.4683 44.886C38.1389 44.1375 39.3018 43.569 41.0354 43.1732C43.1185 42.7486 44.4598 42.4247 45.059 42.2448C45.6583 42.0649 46.3289 41.8202 46.9995 41.5323C46.9995 40.7838 46.8568 40.2513 46.5786 39.9634C46.2932 39.6755 45.8367 39.5388 45.0947 39.5388C44.2101 39.5388 43.5395 39.6827 43.0829 39.9994C42.7333 40.2513 42.4479 40.7119 42.2339 41.3884M46.9995 44.5262C46.2576 44.85 45.4443 45.0947 44.631 45.3106C43.5038 45.6345 42.7975 45.9871 42.5121 46.275C42.1911 46.5988 42.0556 46.9875 42.0556 47.3761C42.0556 47.8727 42.1982 48.2325 42.5121 48.5492C42.7975 48.837 43.2541 48.9738 43.8177 48.9738C44.4526 48.9738 45.0162 48.8298 45.5513 48.5132C46.0792 48.1893 46.4716 47.8007 46.6785 47.3401C46.8925 46.8435 46.9995 46.239 46.9995 45.4905V44.5262ZM55.7603 36.3002H60.954V38.8623C61.4462 37.7612 61.9456 37.0127 62.4735 36.5809C63.0015 36.1563 63.6721 35.9404 64.4497 35.9404C65.2273 35.9404 66.1476 36.2283 67.1322 36.7608L65.3986 41.0717C64.7636 40.7478 64.2357 40.6111 63.8433 40.6111C63.137 40.6111 62.5734 40.935 62.181 41.5755C61.6174 42.5039 61.3321 44.2095 61.3321 46.7428V52.2627H55.7532V36.3002H55.7603ZM84.5039 45.6345H73.4174C73.5244 46.5988 73.7741 47.3113 74.1593 47.8079C74.6872 48.4844 75.3579 48.8083 76.2425 48.8083C76.7704 48.8083 77.3055 48.6643 77.7621 48.3836C78.0831 48.1677 78.397 47.8511 78.7537 47.3833L84.19 47.9158C83.341 49.4848 82.3565 50.6218 81.1865 51.2983C79.9879 51.9748 78.3257 52.3347 76.0998 52.3347C74.195 52.3347 72.7111 52.0468 71.6124 51.4423C70.5209 50.8737 69.6006 49.9453 68.8943 48.6643C68.1523 47.3833 67.8028 45.8864 67.8028 44.1735C67.8028 41.7122 68.5447 39.7547 69.9573 38.2218C71.4055 36.7248 73.4174 35.9404 75.9643 35.9404C78.0118 35.9404 79.6384 36.3002 80.8369 36.9767C82.0354 37.6532 82.9557 38.6536 83.555 39.9346C84.19 41.2156 84.511 42.8925 84.511 44.958V45.6345H84.5039ZM78.8893 42.7486C78.7823 41.6115 78.4684 40.755 78.0046 40.2585C77.548 39.7619 76.9488 39.51 76.1712 39.51C75.2865 39.51 74.6159 39.8986 74.088 40.6471C73.7313 41.1077 73.5244 41.8202 73.453 42.7486H78.8893Z" fill="white"/>
<path fill-rule="evenodd" clip-rule="evenodd" d="M71.4766 57.9266C71.4766 57.9266 72.8535 59.1357 74.1233 59.5315C75.4289 59.9202 77.0198 60.7766 77.2695 61.0644C77.2695 61.0644 75.0793 59.0709 73.9164 58.5024C72.7892 57.9338 71.7619 57.7899 71.4766 57.9338" fill="white"/>
<path fill-rule="evenodd" clip-rule="evenodd" d="M69.6367 57.7829C69.6367 57.7829 71.4702 57.4231 72.7472 60.9207C72.7472 60.9207 71.62 60.1003 70.9137 59.3518C70.1718 58.6034 69.6439 57.7829 69.6439 57.7829" fill="white"/>
<path fill-rule="evenodd" clip-rule="evenodd" d="M21.2597 47.9527C21.2597 47.9527 19.4619 47.7368 18.2919 47.0603C17.1647 46.3478 15.4668 45.7793 15.1172 45.7793C15.1172 45.7793 18.0137 46.0672 19.2122 46.5278C20.3751 46.9524 21.1527 47.6289 21.2597 47.9527Z" fill="white"/>
<path fill-rule="evenodd" clip-rule="evenodd" d="M22.6011 49.1969C22.6011 49.1969 21.6094 47.592 18.2207 48.981C18.2207 48.981 19.5619 49.2688 20.5892 49.2976C21.6094 49.3696 22.6011 49.1897 22.6011 49.1897" fill="white"/>
<path fill-rule="evenodd" clip-rule="evenodd" d="M23.9433 48.3409C23.3083 48.2329 22.6734 47.9522 22.2097 47.2038C21.7888 46.4913 21.853 45.8868 22.4237 45.2822C22.4237 45.2822 23.3083 46.7072 23.4154 47.031C23.558 47.3189 23.9076 48.0602 23.9433 48.3481" fill="white"/>
<path fill-rule="evenodd" clip-rule="evenodd" d="M26.6256 49.9455C26.6256 49.9455 25.3557 49.5569 25.3914 48.5925C25.427 47.5921 26.5186 47.0596 26.5186 47.0596C26.5186 47.0596 26.9395 49.161 26.6256 49.9455Z" fill="white"/>
<path fill-rule="evenodd" clip-rule="evenodd" d="M25.4273 50.9752C25.4273 50.9752 24.4356 49.3703 21.0469 50.7593C21.0469 50.7593 22.3881 51.0472 23.4154 51.0759C24.4356 51.1479 25.4273 50.968 25.4273 50.968" fill="white"/>
<path fill-rule="evenodd" clip-rule="evenodd" d="M28.8862 53.3276C28.8862 53.3276 28.0016 51.6508 24.5059 52.831C24.5059 52.831 25.8471 53.1837 26.8744 53.2916C27.8946 53.3996 28.8862 53.3276 28.8862 53.3276Z" fill="white"/>
<path fill-rule="evenodd" clip-rule="evenodd" d="M30.2629 52.328C30.2629 52.328 29.1001 52.0401 29.2356 51.011C29.3426 49.9746 30.1202 49.3701 30.1202 49.3701C30.1202 49.3701 30.5768 51.2557 30.2629 52.328Z" fill="white"/>
<path fill-rule="evenodd" clip-rule="evenodd" d="M30.7199 54.1847C30.7199 54.1847 27.8234 52.0472 26.8674 51.1908C25.8757 50.2984 23.229 48.5208 21.8164 48.125C21.8164 48.125 23.9709 48.3769 26.9387 50.903C29.8709 53.3931 30.8554 53.8968 30.8554 53.8968C30.8554 53.8968 30.6414 54.2855 30.7127 54.1847" fill="white"/>
<path fill-rule="evenodd" clip-rule="evenodd" d="M26.9805 57.3515C26.9805 57.3515 25.4609 58.5246 24.084 58.8125C22.6715 59.1363 20.9735 59.9136 20.6953 60.2015C20.6953 60.2015 23.1281 58.2799 24.3694 57.7473C25.6036 57.2148 26.7023 57.1428 26.9805 57.3587" fill="white"/>
<path fill-rule="evenodd" clip-rule="evenodd" d="M28.9215 57.2859C28.9215 57.2859 27.0167 56.7894 25.4258 60.3877C25.4258 60.3877 26.66 59.6033 27.4733 58.8908C28.2866 58.1423 28.9215 57.2859 28.9215 57.2859Z" fill="white"/>
<path fill-rule="evenodd" clip-rule="evenodd" d="M29.3438 55.6098C28.7802 56.0344 28.0739 56.2863 27.1893 56.0344C26.3403 55.7825 25.9551 55.286 25.9551 54.3936C25.9551 54.3936 27.653 54.8541 27.9669 54.9981C28.288 55.142 29.0941 55.4227 29.3438 55.6026" fill="white"/>
<path fill-rule="evenodd" clip-rule="evenodd" d="M32.56 54.8971C32.56 54.8971 31.2901 55.5376 30.6195 54.7531C29.9132 53.9687 30.3698 52.7236 30.3698 52.7236C30.3698 52.7236 32.2389 54.0406 32.56 54.8971Z" fill="white"/>
<path fill-rule="evenodd" clip-rule="evenodd" d="M32.3825 56.5737C32.3825 56.5737 30.4776 56.0411 28.8867 59.6395C28.8867 59.6395 30.1209 58.8551 30.9342 58.1426C31.7475 57.4301 32.3825 56.5737 32.3825 56.5737Z" fill="white"/>
<path fill-rule="evenodd" clip-rule="evenodd" d="M36.7273 55.7893C36.7273 55.7893 34.8582 55.1488 33.0176 58.6393C33.0176 58.6393 34.3231 57.9628 35.1721 57.2863C36.0567 56.6098 36.7273 55.7893 36.7273 55.7893Z" fill="white"/>
<path fill-rule="evenodd" clip-rule="evenodd" d="M37.077 54.0405C37.077 54.0405 35.9855 54.645 35.3434 53.7886C34.6728 52.8962 34.8154 51.8311 34.8154 51.8311C34.8154 51.8311 36.5491 52.9681 37.077 54.0405Z" fill="white"/>
<path fill-rule="evenodd" clip-rule="evenodd" d="M38.7741 55.1129C38.7741 55.1129 35.0287 55.6095 33.6518 55.6455C32.2392 55.7175 28.9575 56.286 27.5449 57.0345C27.5449 57.0345 29.3784 55.6455 33.4806 55.3576C37.5756 55.1057 38.7099 54.7891 38.7099 54.7891C38.7099 54.7891 38.8169 55.2137 38.7812 55.1129" fill="white"/>
<path fill-rule="evenodd" clip-rule="evenodd" d="M76.9492 48.7651C76.9492 48.7651 78.747 48.5492 79.917 47.8367C81.0442 47.1242 82.7422 46.5557 83.1274 46.5557C83.1274 46.5557 80.1953 46.8435 78.9967 47.3041C77.7982 47.7647 77.0206 48.4052 76.9492 48.7651Z" fill="white"/>
<path fill-rule="evenodd" clip-rule="evenodd" d="M75.5723 50.0174C75.5723 50.0174 76.5639 48.3766 79.9883 49.8015C79.9883 49.8015 78.6471 50.0894 77.6198 50.1182C76.5639 50.1542 75.5723 50.0102 75.5723 50.0102" fill="white"/>
<path fill-rule="evenodd" clip-rule="evenodd" d="M74.2305 49.125C74.8654 49.0531 75.536 48.7364 75.9641 48.0239C76.385 47.2755 76.3208 46.6709 75.75 46.0664C75.75 46.0664 74.9011 47.5274 74.7584 47.8152C74.6514 48.1031 74.2661 48.8444 74.2305 49.1322" fill="white"/>
<path fill-rule="evenodd" clip-rule="evenodd" d="M71.5489 50.7666C71.5489 50.7666 72.8188 50.378 72.7831 49.3776C72.7475 48.3773 71.6203 47.8447 71.6203 47.8447C71.6203 47.8447 71.235 49.9462 71.5489 50.7666Z" fill="white"/>
<path fill-rule="evenodd" clip-rule="evenodd" d="M72.7461 51.7958C72.7461 51.7958 73.7377 50.1549 77.1621 51.5799C77.1621 51.5799 75.7853 51.8677 74.7579 51.8965C73.7306 51.9325 72.7461 51.7886 72.7461 51.7886" fill="white"/>
<path fill-rule="evenodd" clip-rule="evenodd" d="M69.2871 54.1487C69.2871 54.1487 70.1361 52.4358 73.6675 53.6521C73.6675 53.6521 72.3263 54.0119 71.2989 54.1127C70.2716 54.2206 69.2871 54.1487 69.2871 54.1487Z" fill="white"/>
<path fill-rule="evenodd" clip-rule="evenodd" d="M67.8751 53.1482C67.8751 53.1482 69.038 52.8603 68.931 51.8311C68.7883 50.7948 68.0107 50.1543 68.0107 50.1543C68.0107 50.1543 67.5541 52.0758 67.868 53.1482" fill="white"/>
<path fill-rule="evenodd" clip-rule="evenodd" d="M67.4466 55.0408C67.4466 55.0408 70.3074 52.8674 71.2991 52.011C72.2907 51.1186 74.9375 49.341 76.3857 48.9092C76.3857 48.9092 74.1955 49.1611 71.2277 51.6871C68.2599 54.2132 67.2754 54.717 67.2754 54.717C67.2754 54.717 67.4894 55.1056 67.4537 55.0408" fill="white"/>
<path fill-rule="evenodd" clip-rule="evenodd" d="M69.3594 56.1782C69.8516 56.5669 70.5222 56.8907 71.3355 56.6748C72.1845 56.4949 72.5698 56.0703 72.6411 55.2139C72.6411 55.2139 70.9788 55.5737 70.7006 55.6745C70.3796 55.7464 69.6091 55.9983 69.3594 56.171" fill="white"/>
<path fill-rule="evenodd" clip-rule="evenodd" d="M66.3555 55.2498C66.3555 55.2498 67.4827 55.9623 68.189 55.2498C68.8952 54.5373 68.5457 53.3643 68.5457 53.3643C68.5457 53.3643 66.7122 54.4654 66.3555 55.2498Z" fill="white"/>
<path fill-rule="evenodd" clip-rule="evenodd" d="M66.3906 56.8542C66.3906 56.8542 68.2598 56.4944 69.5368 59.992C69.5368 59.992 68.4096 59.1716 67.6676 58.4231C66.9614 57.7106 66.3978 56.8542 66.3978 56.8542" fill="white"/>
<path fill-rule="evenodd" clip-rule="evenodd" d="M62.332 55.8611C62.332 55.8611 64.1655 55.3645 65.6851 58.783C65.6851 58.783 64.4866 58.0345 63.7089 57.358C62.9313 56.6456 62.332 55.8611 62.332 55.8611Z" fill="white"/>
<path fill-rule="evenodd" clip-rule="evenodd" d="M62.1172 54.1491C62.1172 54.1491 63.1088 54.8256 63.7795 54.0051C64.4857 53.2207 64.4144 52.2275 64.4144 52.2275C64.4144 52.2275 62.6808 53.1919 62.1172 54.1491Z" fill="white"/>
<path fill-rule="evenodd" clip-rule="evenodd" d="M60.4549 55.0774C60.4549 55.0774 63.9864 55.7539 65.2919 55.9338C66.5975 56.0778 69.6723 56.8262 70.9422 57.6107C70.9422 57.6107 69.2799 56.1497 65.4346 55.6531C61.5821 55.1566 60.562 54.7607 60.562 54.7607C60.562 54.7607 60.4193 55.1494 60.4549 55.0846" fill="white"/>
<path fill-rule="evenodd" clip-rule="evenodd" d="M35.3858 52.4716C35.3858 52.4716 33.6522 52.2557 32.5606 51.5792C31.4691 50.9387 29.8782 50.3701 29.5215 50.3701C29.5215 50.3701 32.3109 50.658 33.4381 51.0826C34.5653 51.5072 35.3073 52.1549 35.3786 52.4716" fill="white"/>
<path fill-rule="evenodd" clip-rule="evenodd" d="M36.6546 53.6524C36.6546 53.6524 35.7343 52.1195 32.4883 53.4365C32.4883 53.4365 33.7938 53.7244 34.7498 53.7604C35.7415 53.7963 36.6546 53.6524 36.6546 53.6524Z" fill="white"/>
<path fill-rule="evenodd" clip-rule="evenodd" d="M37.961 52.8317C37.3617 52.7237 36.7268 52.4431 36.2987 51.7666C35.9135 51.0541 35.9777 50.4855 36.5128 49.917C36.5128 49.917 37.3261 51.27 37.4687 51.5579C37.5757 51.8457 37.9253 52.5582 37.961 52.8389" fill="white"/>
<path fill-rule="evenodd" clip-rule="evenodd" d="M40.5074 54.3649C40.5074 54.3649 39.3089 54.005 39.3445 53.0479C39.3802 52.1195 40.4361 51.5869 40.4361 51.5869C40.4361 51.5869 40.8213 53.6164 40.5074 54.3649Z" fill="white"/>
<path fill-rule="evenodd" clip-rule="evenodd" d="M39.3739 55.3219C39.3739 55.3219 38.4179 53.789 35.1719 55.142C35.1719 55.142 36.4774 55.4298 37.4691 55.4658C38.4251 55.5018 39.3739 55.3219 39.3739 55.3219Z" fill="white"/>
<path fill-rule="evenodd" clip-rule="evenodd" d="M42.6624 57.5675C42.6624 57.5675 41.8135 55.9626 38.4961 57.1069C38.4961 57.1069 39.766 57.4667 40.7576 57.5675C40.9003 57.5675 41.0787 57.5675 41.2499 57.6035H42.2415C42.4912 57.5675 42.6624 57.5675 42.6624 57.5675Z" fill="white"/>
<path fill-rule="evenodd" clip-rule="evenodd" d="M43.9676 56.639C43.9676 56.639 42.8761 56.3511 43.0117 55.358C43.1187 54.3936 43.8606 53.7891 43.8606 53.7891C43.8606 53.7891 44.2815 55.6027 43.9676 56.639Z" fill="white"/>
<path fill-rule="evenodd" clip-rule="evenodd" d="M43.3323 57.6036C42.4477 56.9271 41.2848 56.0347 40.7212 55.5381C39.8009 54.7177 37.2968 53.012 35.9199 52.6162C35.9199 52.6162 38.0031 52.8681 40.8282 55.2502C42.2051 56.4593 43.1611 57.1718 43.7247 57.6036H43.3395H43.3323Z" fill="white"/>
<path fill-rule="evenodd" clip-rule="evenodd" d="M47.9918 52.3993C47.9918 52.3993 48.6981 50.7225 48.6267 49.3695C48.591 48.0165 48.9121 46.2677 49.0833 45.915C49.0833 45.915 47.9204 48.621 47.7421 49.9021C47.5281 51.1831 47.7421 52.1834 47.9918 52.3993Z" fill="white"/>
<path fill-rule="evenodd" clip-rule="evenodd" d="M48.448 54.2204C48.448 54.2204 47.492 52.5796 50.3885 50.2334C50.3885 50.2334 50.0033 51.5864 49.5396 52.5148C49.0473 53.4432 48.448 54.2276 48.448 54.2276" fill="white"/>
<path fill-rule="evenodd" clip-rule="evenodd" d="M46.9991 55.0047C47.2488 54.4002 47.3201 53.6517 46.8564 52.9392C46.4355 52.1908 45.8648 51.9749 45.0586 52.1908C45.0586 52.1908 45.9076 53.6517 46.1145 53.9036C46.2928 54.1195 46.7851 54.832 46.9991 55.0047Z" fill="white"/>
<path fill-rule="evenodd" clip-rule="evenodd" d="M47.1789 57.6027C47.1789 57.1781 47.0363 56.6384 46.544 56.3577C45.6237 55.9331 44.6035 56.6456 44.6035 56.6456C44.6035 56.6456 45.2385 57.1781 45.9447 57.6099H47.1789V57.6027Z" fill="white"/>
<path fill-rule="evenodd" clip-rule="evenodd" d="M48.6255 57.5671C48.6255 57.5671 47.6695 55.9262 50.6017 53.5801C50.6017 53.5801 50.1807 54.9331 49.717 55.8615C49.2604 56.7899 48.6255 57.5743 48.6255 57.5743" fill="white"/>
<path fill-rule="evenodd" clip-rule="evenodd" d="M47.8852 57.6027C47.7068 56.1057 47.6355 54.0762 47.8852 53.0039C47.8852 53.0039 47.2146 54.6088 47.5998 57.6027H47.8852Z" fill="white"/>
<path fill-rule="evenodd" clip-rule="evenodd" d="M60.5273 52.5804C60.5273 52.5804 62.3608 52.3645 63.5665 51.652C64.7294 50.9395 66.4273 50.335 66.8126 50.335C66.8126 50.335 63.8447 50.6588 62.6105 51.1194C61.412 51.58 60.6344 52.2565 60.5273 52.5804Z" fill="white"/>
<path fill-rule="evenodd" clip-rule="evenodd" d="M59.1504 53.8605C59.1504 53.8605 60.1777 52.1836 63.6378 53.6446C63.6378 53.6446 62.2609 53.9324 61.1979 53.9684C60.1706 54.0044 59.1504 53.8605 59.1504 53.8605Z" fill="white"/>
<path fill-rule="evenodd" clip-rule="evenodd" d="M57.7728 52.9753C58.4077 52.8674 59.0783 52.5867 59.5349 51.8382C59.9558 51.0898 59.8916 50.4852 59.3209 49.8447C59.3209 49.8447 58.4362 51.3417 58.2936 51.6223C58.1865 51.9102 57.8013 52.6587 57.7656 52.9753" fill="white"/>
<path fill-rule="evenodd" clip-rule="evenodd" d="M55.0548 54.6092C55.0548 54.6092 56.3604 54.2206 56.3247 53.2203C56.2534 52.1839 55.1262 51.6514 55.1262 51.6514C55.1262 51.6514 54.7052 53.7888 55.0548 54.6092Z" fill="white"/>
<path fill-rule="evenodd" clip-rule="evenodd" d="M56.2539 55.6818C56.2539 55.6818 57.2812 54.0049 60.7413 55.4659C60.7413 55.4659 59.3644 55.7537 58.3014 55.7897C57.2812 55.8257 56.2539 55.6818 56.2539 55.6818Z" fill="white"/>
<path fill-rule="evenodd" clip-rule="evenodd" d="M53.1849 57.6028C53.7485 57.1781 54.947 56.7823 57.1729 57.5308C57.1729 57.5308 57.1372 57.5668 56.9945 57.6028H53.1777H53.1849Z" fill="white"/>
<path fill-rule="evenodd" clip-rule="evenodd" d="M51.3447 57.0707C51.3447 57.0707 52.5075 56.7469 52.372 55.7177C52.265 54.6454 51.4517 54.0049 51.4517 54.0049C51.4517 54.0049 50.9951 55.9624 51.3447 57.0707Z" fill="white"/>
<path fill-rule="evenodd" clip-rule="evenodd" d="M52.6502 57.6036C53.4635 56.9631 54.3481 56.2866 54.8047 55.8907C55.7964 54.9983 58.4788 53.1847 59.9627 52.7529C59.9627 52.7529 57.7369 53.0048 54.6977 55.5669C53.6704 56.4953 52.8642 57.1358 52.2578 57.5964H52.6431L52.6502 57.6036Z" fill="white"/>
</g>
<defs>
<clipPath id="clip0_427_1071">
<rect width="88" height="61" fill="white"/>
</clipPath>
</defs>
</svg>
