<svg width="18" height="18" viewBox="0 0 18 18" fill="none" xmlns="http://www.w3.org/2000/svg">
<g clip-path="url(#clip0_444_308)">
<path d="M7.87573 15.3748L15.3757 7.87476C15.7262 7.53131 16.0051 7.1218 16.1963 6.6699C16.3875 6.218 16.4872 5.73267 16.4897 5.24199C16.4922 4.75131 16.3974 4.26501 16.2107 3.8112C16.0241 3.35739 15.7494 2.94508 15.4024 2.59811C15.0554 2.25114 14.6431 1.9764 14.1893 1.78976C13.7355 1.60313 13.2492 1.50831 12.7585 1.51079C12.2678 1.51327 11.7825 1.61299 11.3306 1.8042C10.8787 1.99541 10.4692 2.2743 10.1257 2.62476L2.62574 10.1248C2.27528 10.4682 1.99638 10.8777 1.80518 11.3296C1.61397 11.7815 1.51424 12.2668 1.51177 12.7575C1.50929 13.2482 1.60411 13.7345 1.79074 14.1883C1.97737 14.6421 2.25212 15.0544 2.59908 15.4014C2.94605 15.7484 3.35836 16.0231 3.81217 16.2098C4.26598 16.3964 4.75229 16.4912 5.24297 16.4887C5.73365 16.4862 6.21897 16.3865 6.67087 16.1953C7.12278 16.0041 7.53229 15.7252 7.87573 15.3748Z" stroke="#181A16" stroke-width="1.25" stroke-linecap="round" stroke-linejoin="round"/>
<path d="M6.375 6.375L11.625 11.625" stroke="#181A16" stroke-width="1.25" stroke-linecap="round" stroke-linejoin="round"/>
</g>
<defs>
<clipPath id="clip0_444_308">
<rect width="18" height="18" fill="white"/>
</clipPath>
</defs>
</svg>
