<?xml version="1.0" encoding="UTF-8"?>
<svg xmlns="http://www.w3.org/2000/svg" xmlns:xlink="http://www.w3.org/1999/xlink" width="20px" height="20px" viewBox="0 0 20 20" version="1.1">
<g id="surface1">
<path style=" stroke:none;fill-rule:nonzero;fill:rgb(33.333334%,34.117648%,32.549021%);fill-opacity:1;" d="M 10 1.539062 C 8.335938 1.539062 6.785156 2.023438 5.476562 2.855469 L 3.707031 1.085938 L 3.707031 6.042969 L 8.664062 6.042969 L 6.695312 4.074219 C 7.675781 3.527344 8.800781 3.207031 10 3.207031 C 13.746094 3.207031 16.792969 6.253906 16.792969 10 C 16.792969 10.890625 16.613281 11.742188 16.300781 12.523438 L 17.757812 13.375 C 18.210938 12.339844 18.460938 11.199219 18.460938 10 C 18.460938 5.335938 14.664062 1.539062 10 1.539062 Z M 10 1.539062 "/>
<path style=" stroke:none;fill-rule:nonzero;fill:rgb(33.333334%,34.117648%,32.549021%);fill-opacity:1;" d="M 13.300781 15.921875 C 12.324219 16.472656 11.199219 16.792969 10 16.792969 C 6.253906 16.792969 3.207031 13.746094 3.207031 10 C 3.207031 9.15625 3.371094 8.355469 3.652344 7.609375 L 2.195312 6.730469 C 1.773438 7.738281 1.539062 8.84375 1.539062 10 C 1.539062 14.664062 5.335938 18.460938 10 18.460938 C 11.664062 18.460938 13.210938 17.972656 14.519531 17.140625 L 16.292969 18.914062 L 16.292969 13.957031 L 11.335938 13.957031 Z M 13.300781 15.921875 "/>
</g>
</svg>
