<svg width="19" height="18" viewBox="0 0 19 18" fill="none" xmlns="http://www.w3.org/2000/svg">
<path d="M11.75 1.5H7.25C6.83579 1.5 6.5 1.83579 6.5 2.25V3.75C6.5 4.16421 6.83579 4.5 7.25 4.5H11.75C12.1642 4.5 12.5 4.16421 12.5 3.75V2.25C12.5 1.83579 12.1642 1.5 11.75 1.5Z" stroke="#181A16" stroke-width="1.25" stroke-linecap="round" stroke-linejoin="round"/>
<path d="M12.5 3H14C14.3978 3 14.7794 3.15804 15.0607 3.43934C15.342 3.72064 15.5 4.10218 15.5 4.5V15C15.5 15.3978 15.342 15.7794 15.0607 16.0607C14.7794 16.342 14.3978 16.5 14 16.5H5C4.60218 16.5 4.22064 16.342 3.93934 16.0607C3.65804 15.7794 3.5 15.3978 3.5 15V4.5C3.5 4.10218 3.65804 3.72064 3.93934 3.43934C4.22064 3.15804 4.60218 3 5 3H6.5" stroke="#181A16" stroke-width="1.25" stroke-linecap="round" stroke-linejoin="round"/>
<path d="M7.25 10.5H11.75" stroke="#181A16" stroke-width="1.25" stroke-linecap="round" stroke-linejoin="round"/>
<path d="M9.5 12.75V8.25" stroke="#181A16" stroke-width="1.25" stroke-linecap="round" stroke-linejoin="round"/>
</svg>
