<svg width="18" height="18" viewBox="0 0 18 18" fill="none" xmlns="http://www.w3.org/2000/svg">
<path fill-rule="evenodd" clip-rule="evenodd" d="M8.60201 3.5395C8.70747 3.43417 8.85044 3.375 8.99951 3.375C9.14857 3.375 9.29154 3.43417 9.397 3.5395L12.2095 6.35201C12.3089 6.45864 12.363 6.59967 12.3604 6.7454C12.3578 6.89112 12.2988 7.03016 12.1957 7.13322C12.0927 7.23628 11.9536 7.29532 11.8079 7.29789C11.6622 7.30046 11.5211 7.24636 11.4145 7.147L8.99951 4.73201L6.5845 7.147C6.47787 7.24636 6.33684 7.30046 6.19111 7.29789C6.04539 7.29532 5.90635 7.23628 5.80329 7.13322C5.70023 7.03016 5.64119 6.89112 5.63862 6.7454C5.63605 6.59967 5.69014 6.45864 5.7895 6.35201L8.60201 3.5395ZM5.7895 10.852C5.89497 10.7467 6.03794 10.6875 6.18701 10.6875C6.33607 10.6875 6.47904 10.7467 6.5845 10.852L8.99951 13.267L11.4145 10.852C11.466 10.7967 11.5281 10.7524 11.5971 10.7217C11.6661 10.6909 11.7406 10.6744 11.8161 10.6731C11.8916 10.6717 11.9667 10.6856 12.0367 10.7139C12.1067 10.7422 12.1704 10.7843 12.2238 10.8377C12.2772 10.8911 12.3193 10.9548 12.3476 11.0248C12.3759 11.0948 12.3898 11.1699 12.3884 11.2454C12.3871 11.3209 12.3706 11.3954 12.3398 11.4644C12.3091 11.5334 12.2648 11.5955 12.2095 11.647L9.397 14.4595C9.29154 14.5648 9.14857 14.624 8.99951 14.624C8.85044 14.624 8.70747 14.5648 8.60201 14.4595L5.7895 11.647C5.68417 11.5415 5.625 11.3986 5.625 11.2495C5.625 11.1004 5.68417 10.9575 5.7895 10.852Z" fill="#181A16"/>
</svg>
